<?xml version="1.0" encoding="UTF-8"?>
<!DOCTYPE svg PUBLIC "-//W3C//DTD SVG 1.1//EN" "http://www.w3.org/Graphics/SVG/1.1/DTD/svg11.dtd">
<!-- Creator: CorelDRAW -->
<svg xmlns="http://www.w3.org/2000/svg" xml:space="preserve" width="22.5214mm" height="26.0054mm" version="1.1" style="shape-rendering:geometricPrecision; text-rendering:geometricPrecision; image-rendering:optimizeQuality; fill-rule:evenodd; clip-rule:evenodd"
viewBox="0 0 136.15 157.21"
 xmlns:xlink="http://www.w3.org/1999/xlink"
 xmlns:xodm="http://www.corel.com/coreldraw/odm/2003">
 <defs>
  <style type="text/css">
   <![CDATA[
    .fil0 {fill:#FEFEFE}
   ]]>
  </style>
 </defs>
 <g id="Layer_x0020_1">
  <metadata id="CorelCorpID_0Corel-Layer"/>
  <path class="fil0" d="M68.07 0l34.04 19.65 12.65 7.3c-12.16,0.29 -21.41,4.25 -27.76,11.86l-18.93 -10.93 -21.96 12.68 -21.96 12.68 0 6.64 -24.15 -14.34 0 -6.25 34.04 -19.65 34.04 -19.65zm43.5 34.29l14.33 0c1.69,0 3.07,1.38 3.07,3.07l0 41.37c-5.63,5.72 -12.46,11.4 -20.47,17.03l0 -58.41c0,-1.69 1.38,-3.07 3.07,-3.07zm-30.71 19.45l14.33 0c1.69,0 3.07,1.38 3.07,3.07l0 45.73c-6.25,3.9 -13.07,7.78 -20.47,11.64l0 -57.37c0,-1.69 1.38,-3.07 3.07,-3.07zm-29.64 17.77l14.33 0c1.69,0 3.07,1.38 3.07,3.07l0 44.22 -20.47 -11.4 0 -32.83c0,-1.69 1.38,-3.07 3.07,-3.07zm-27.08 -0.91l0 8 0 25.36 16.05 9.26 0.02 0.15 6.66 3.71 21.2 12.24 2.17 -1.25c14.92,-6.83 28.22,-14.51 39.9,-23.04l1.85 -1.07 0 -0.3c9.05,-6.78 17.1,-14.09 24.15,-21.92l0 36.17 -34.04 19.65 -34.04 19.65 -34.04 -19.65 -34.04 -19.65 0 -39.3 0 -22.34 24.15 14.34z"/>
 </g>
</svg>
